<?xml version="1.0" encoding="UTF-8" standalone="no"?><!DOCTYPE svg PUBLIC "-//W3C//DTD SVG 1.1//EN" "http://www.w3.org/Graphics/SVG/1.1/DTD/svg11.dtd"><svg width="100%" height="100%" viewBox="0 0 600 144" version="1.1" xmlns="http://www.w3.org/2000/svg" xmlns:xlink="http://www.w3.org/1999/xlink" xml:space="preserve" xmlns:serif="http://www.serif.com/" style="fill-rule:evenodd;clip-rule:evenodd;stroke-linejoin:round;stroke-miterlimit:2;"><rect x="267.07" y="58.91" width="16.7" height="16.7" style="fill:#2d7cab;"/><rect x="290.23" y="0.21" width="7.49" height="7.49" style="fill:#2d7cab;"/><path d="M298.405,34.722l-12.82,-9.969l-9.97,12.82l12.82,9.969l9.97,-12.82Z" style="fill:#2d7cab;"/><path d="M251.23,96.82c3.081,-8.107 4.66,-16.707 4.66,-25.38c0,-39.191 -32.249,-71.44 -71.44,-71.44c-0.01,0 -0.02,0 -0.03,0c-23.06,0 -40,11.92 -44.76,15.79l18,24.49c7.452,-6.391 16.952,-9.907 26.77,-9.907c22.558,0 41.12,18.562 41.12,41.12c0,22.557 -18.562,41.12 -41.12,41.12c-22.558,0 -41.12,-18.563 -41.12,-41.12c0,-0.005 0,-0.009 0,-0.013c-0.15,-39.28 -32.49,-71.28 -71.84,-71.28c-39.224,0 -71.5,32.276 -71.5,71.5c0,39.224 32.276,71.5 71.5,71.5c23.06,0 40,-11.91 44.76,-15.78l-18,-24.5c-7.45,6.388 -16.946,9.902 -26.76,9.902c-22.552,0 -41.11,-18.558 -41.11,-41.11c0,-22.552 18.558,-41.11 41.11,-41.11c22.552,0 41.11,18.558 41.11,41.11c0,0.003 0,0.005 0,0.008c0.11,39.32 32.45,71.27 71.8,71.27c22.831,-0.007 44.327,-10.962 57.75,-29.43l-7.59,0l0,-16.7l16.69,-0.04Zm-25.71,7.66l-7.49,0l0,-7.49l7.49,0l0,7.49Zm19.42,-16.91l-7.49,0l0,-7.5l7.49,0l0,7.5Zm-19.71,-34.18l0,-5l5,0l0,5l-5,0Zm5,19.57l0,-16.24l16.2,0l0,16.24l-16.2,0Z" style="fill:#2d7cab;fill-rule:nonzero;"/><path d="M258.642,40.611l-2.668,6.999l6.998,2.668l2.669,-6.999l-6.999,-2.668Z" style="fill:#2d7cab;"/><rect x="262.09" y="20.73" width="4.98" height="4.98" style="fill:#2d7cab;"/><path d="M325.7,75.04l0,-42.72l27.3,0l0,5.82l-20.77,0l0,12.48l17.76,0l0,5.76l-17.76,0l0,12.82l20.82,0l0,5.82l-27.35,0.02Z" style="fill:#2d7cab;fill-rule:nonzero;"/><path d="M368.42,75.04l-6.48,0l0,-42.66l15,0c4.667,0 8.333,1.333 11,4c2.102,2.163 3.467,4.935 3.9,7.92c0.355,3.026 0.495,6.074 0.42,9.12c0.073,3.126 -0.067,6.253 -0.42,9.36c-0.372,3.091 -1.741,5.977 -3.9,8.22c-2.667,2.667 -6.333,4 -11,4l-3.66,0l0,-5.8l3,0c2.706,0.152 5.345,-0.904 7.2,-2.88c1.52,-1.68 2.28,-5.98 2.28,-12.9c0,-6.56 -0.76,-10.68 -2.28,-12.36c-1.855,-1.976 -4.494,-3.032 -7.2,-2.88l-7.86,0l0,36.86Z" style="fill:#2d7cab;fill-rule:nonzero;"/><rect x="401.84" y="32.32" width="6.48" height="42.72" style="fill:#2d7cab;fill-rule:nonzero;"/><path d="M419.48,75.04l0,-42.72l6.48,0l0,36.88l20.58,0l0,5.82l-27.06,0.02Z" style="fill:#2d7cab;fill-rule:nonzero;"/><path d="M469.76,32.2l15.72,42.84l-6.9,0l-1.92,-5.52l-1.08,-3.06l-8.28,-24.6l-6.66,19l7.68,0l1.92,5.58l-11.58,0l-2.94,8.58l-6.9,0l15.72,-42.82l5.22,0Z" style="fill:#2d7cab;fill-rule:nonzero;"/><path d="M517.64,75.04l-19.74,-30.06l0,30.06l-6.48,0l0,-42.72l5.94,0l19.74,30l0,-30l6.48,0l0,42.72l-5.94,0Z" style="fill:#2d7cab;fill-rule:nonzero;"/><path d="M563.78,62.26c-0.523,3.789 -2.399,7.264 -5.28,9.78c-2.816,2.293 -6.371,3.488 -10,3.36c-4.208,0.096 -8.272,-1.556 -11.22,-4.56c-1.926,-1.922 -3.206,-4.397 -3.66,-7.08c-0.42,-3.343 -0.583,-6.712 -0.49,-10.08c-0.093,-3.368 0.07,-6.737 0.49,-10.08c0.454,-2.683 1.734,-5.158 3.66,-7.08c5.787,-5.565 14.863,-6.078 21.24,-1.2c2.868,2.518 4.725,5.996 5.22,9.78l-6.61,0c-1.16,-4.88 -4.037,-7.32 -8.63,-7.32c-2.374,-0.098 -4.676,0.845 -6.3,2.58c-1.73,1.88 -2.58,6.32 -2.58,13.32c0,7 0.85,11.44 2.58,13.32c1.624,1.735 3.926,2.678 6.3,2.58c4.633,0 7.533,-2.44 8.7,-7.32l6.58,0Z" style="fill:#2d7cab;fill-rule:nonzero;"/><path d="M572.42,75.04l0,-42.72l27.29,0l0,5.82l-20.82,0l0,12.48l17.77,0l0,5.76l-17.77,0l0,12.82l20.82,0l0,5.82l-27.29,0.02Z" style="fill:#2d7cab;fill-rule:nonzero;"/><path d="M361.01,107.95l0,24.69l-4.33,0l0,-24.69l-7.87,0l0,-3.89l20.07,0l0,3.89l-7.87,0Z" style="fill:#2d7cab;fill-rule:nonzero;"/><path d="M385.65,132.64l0,-12.44c0,-2.967 -1.363,-4.45 -4.09,-4.45c-1.081,-0.045 -2.137,0.344 -2.93,1.08c-0.84,0.914 -1.273,2.131 -1.2,3.37l0,12.49l-4.1,0l0,-28.63l4.1,0l0,10.27c1.336,-1.485 3.253,-2.317 5.25,-2.28c1.96,-0.106 3.87,0.655 5.22,2.08c1.286,1.488 1.949,3.416 1.85,5.38l0,13.13l-4.1,0Z" style="fill:#2d7cab;fill-rule:nonzero;"/><path d="M395.93,108.27l0,-4.33l4.3,0l0,4.33l-4.3,0Zm0.12,24.37l0,-20.35l4.09,0l0,20.35l-4.09,0Z" style="fill:#2d7cab;fill-rule:nonzero;"/><path d="M419.04,132.64l0,-12.44c0,-3.02 -1.363,-4.53 -4.09,-4.53c-1.104,-0.058 -2.186,0.331 -3,1.08c-0.873,0.928 -1.323,2.178 -1.24,3.45l0,12.41l-4.1,0l0,-20.32l4,0l0,2c1.39,-1.509 3.369,-2.342 5.42,-2.28c1.844,-0.076 3.645,0.586 5,1.84c1.429,1.555 2.153,3.634 2,5.74l0,13l-3.99,0.05Z" style="fill:#2d7cab;fill-rule:nonzero;"/><path d="M442.23,132.64l-5.7,-9.4l-3,3.42l0,6l-4.09,0l0,-28.6l4.09,0l0,17.62l7.91,-9.39l5,0l-7.07,8l8,12.37l-5.14,-0.02Z" style="fill:#2d7cab;fill-rule:nonzero;"/><path d="M472.62,122.48c0.09,-1.609 -0.155,-3.22 -0.72,-4.73c-0.704,-1.272 -2.047,-2.064 -3.5,-2.064c-1.453,0 -2.796,0.792 -3.5,2.064c-1.027,3.073 -1.027,6.397 0,9.47c0.627,1.33 2.026,2.132 3.49,2c0.24,0.015 0.48,0.015 0.72,0l0,3.54c-0.594,0.106 -1.196,0.16 -1.8,0.16c-1.843,0.107 -3.652,-0.547 -5,-1.81c-1.527,-1.52 -2.29,-4.397 -2.29,-8.63c0,-4.233 0.763,-7.097 2.29,-8.59c1.331,-1.25 3.117,-1.9 4.94,-1.8c2.034,-0.105 4.006,0.742 5.33,2.29l0,-10.28l4.1,0l0,28.58l-4.1,0l0.04,-10.2Z" style="fill:#2d7cab;fill-rule:nonzero;"/><path d="M483.14,108.27l0,-4.33l4.33,0l0,4.33l-4.33,0Zm0.12,24.37l0,-20.35l4.09,0l0,20.35l-4.09,0Z" style="fill:#2d7cab;fill-rule:nonzero;"/><path d="M505.29,122.08c0.08,-1.501 -0.152,-3.003 -0.68,-4.41c-0.631,-1.326 -2.027,-2.126 -3.49,-2c-1.452,-0.12 -2.833,0.68 -3.45,2c-0.973,2.862 -0.973,5.968 0,8.83c0.619,1.318 1.999,2.117 3.45,2c0.24,0.015 0.48,0.015 0.72,0l0,3.57c-0.61,0.111 -1.23,0.164 -1.85,0.16c-1.794,0.09 -3.549,-0.562 -4.85,-1.8c-1.53,-1.53 -2.29,-4.28 -2.29,-8.27c0,-3.99 0.76,-6.74 2.29,-8.27c3.024,-2.562 7.594,-2.273 10.27,0.65l0,-2.17l4,0l0,20.23c0.094,2.29 -0.748,4.522 -2.33,6.18c-1.709,1.667 -4.035,2.551 -6.42,2.44c-2.652,0.07 -5.231,-0.891 -7.19,-2.68l2.61,-2.61c1.179,1.158 2.768,1.805 4.42,1.8c1.407,0.096 2.779,-0.484 3.69,-1.56c0.791,-1.046 1.188,-2.34 1.12,-3.65l-0.02,-10.44Z" style="fill:#2d7cab;fill-rule:nonzero;"/><path d="M515.77,108.27l0,-4.33l4.33,0l0,4.33l-4.33,0Zm0.12,24.37l0,-20.35l4.09,0l0,20.35l-4.09,0Z" style="fill:#2d7cab;fill-rule:nonzero;"/><path d="M532.54,132.64c-1.591,0.083 -3.137,-0.553 -4.21,-1.73c-0.931,-1.093 -1.42,-2.495 -1.37,-3.93l0,-11.2l-2.32,0l0,-3.13l2.32,0l0,-6.18l4.1,0l0,6.18l3.93,0l0,3.13l-3.93,0l0,11c0,1.58 0.75,2.36 2.25,2.36l1.68,0l0,3.5l-2.45,0Z" style="fill:#2d7cab;fill-rule:nonzero;"/><path d="M550.96,119.43c0.11,-1.051 -0.257,-2.098 -1,-2.85c-0.978,-0.735 -2.19,-1.091 -3.41,-1c-1.708,-0.098 -3.359,0.65 -4.41,2l-2.65,-2.53c0.831,-1.001 1.891,-1.786 3.09,-2.29c1.33,-0.445 2.729,-0.648 4.13,-0.6c5.567,0 8.35,2.313 8.35,6.94l0,13.5l-4,0l0,-1.85c-3.05,2.684 -7.634,2.786 -10.8,0.24c-1.098,-1.166 -1.68,-2.729 -1.61,-4.33c-0.064,-1.587 0.586,-3.122 1.77,-4.18c1.476,-1.175 3.337,-1.759 5.22,-1.64l2,0l0,2.85l-1.41,0c-2.44,0 -3.65,1 -3.65,2.89c0,1.89 1.23,2.89 3.69,2.89c1.373,0.121 2.741,-0.299 3.81,-1.17c0.672,-0.847 0.988,-1.924 0.88,-3l0,-5.87Z" style="fill:#2d7cab;fill-rule:nonzero;"/><path d="M566.82,132.64c-1.6,0.098 -3.163,-0.522 -4.26,-1.69c-0.917,-1.098 -1.389,-2.501 -1.32,-3.93l0,-23l4.09,0l0,22.72c0,1.58 0.74,2.36 2.21,2.36l1.81,0l0,3.5l-2.53,0.04Z" style="fill:#2d7cab;fill-rule:nonzero;"/></svg>