<svg xmlns="http://www.w3.org/2000/svg" width="629" height="162">
    <g fill="#052851">
        <path d="m268.8 142 2.3 12.9h-4.5l2.2-13Zm-1.6-3-4.2 23h2.4l.8-4.9h5.3l.8 4.9h2.6l-4.3-23h-3.4Zm18.2 17.5v-12c0-3.6 1.8-5.5 5-5.5 3.3 0 5 2 5 5.5v1.8h-2.3v-2c0-2-1-3-2.6-3-1.7 0-2.6 1-2.6 3v12.4c0 2.1 1 3 2.6 3s2.6-.9 2.6-3v-5h-2.4v-2.3h4.8v7c0 3.6-1.8 5.6-5 5.6-3.4 0-5-2-5-5.5Zm14.4-17.5h9.4v2.3h-6.8v7.5h5.5v2.4h-5.5v8.5h6.8v2.3h-9.4v-23Zm13.2 0h3.3l5.1 16.4V139h2.3v23h-2.6l-5.7-18.7V162H313v-23Zm15.5 0h2.5v23h-2.5Zm7.3 0h2.5v23h-2.5Zm14.2 17.7v-12.4c0-3.3 1.7-5.3 4.9-5.3s5 2 5 5.3v2.3h-2.4v-2.4c0-2-1-3-2.5-3-1.6 0-2.6 1-2.6 3v12.6c0 2 1 3 2.6 3 1.5 0 2.5-1 2.5-3v-3.1h2.3v3c0 3.3-1.7 5.3-5 5.3-3.1 0-4.8-2-4.8-5.3m14-.2v-12c0-3.6 1.9-5.5 5.1-5.5 3.3 0 5.1 2 5.1 5.5v12c0 3.5-1.8 5.5-5 5.5-3.3 0-5.1-2-5.1-5.5Zm7.8.1v-12.3c0-2-1-3-2.7-3-1.6 0-2.5 1-2.5 3v12.3c0 2.2.9 3.1 2.5 3.1 1.7 0 2.7-1 2.7-3m6.9-17.7h3.7l3.3 18.4L389 139h3.8v23h-2.5v-19.2l-3.6 19.2h-2.1l-3.7-19.2V162h-2.2v-23Zm18.8 0h5c3.5 0 5 1.9 5 5.6v2c0 3.7-1.5 5.5-5 5.5H400v9.9h-2.5v-23Zm5 10.8c1.7 0 2.6-.8 2.6-3.1v-2.3c0-2.2-.9-3-2.6-3H400v8.4h2.5Zm15.2 7.3h-5.2l-.9 4.9h-2.4l4.3-23h3.4l4.3 23h-2.6l-.9-4.9Zm-.3-2.2-2.3-13-2.2 13h4.5Zm7.5-15.9h3.3l5.1 16.4V139h2.3v23H433l-5.8-18.7V162H425v-23Zm19 13-4.6-13h2.7l3.2 9.6 3.3-9.6h2.5l-4.6 13v10H444v-10ZM423 41v16.3h-6.7V72h6.7v42h17V72h11V57.3h-11V41h-17ZM87.2 56.2c-17.5 0-30.6 12.5-30.6 29a27.8 27.8 0 0 0 9 21 32 32 0 0 0 21.6 8c17.3 0 30.3-12.5 30.3-29s-13-29-30.3-29m13.8 29c0 9.2-7 14.7-13.8 14.7-8 0-14.2-6.3-14.2-14.8 0-8.2 6.2-14.7 14.2-14.7A14 14 0 0 1 101 85m96.6-29.5a24 24 0 0 0-19.6 9.2l-.3.5-.3-.5a20.5 20.5 0 0 0-18-9.2c-6.8 0-12.2 2.2-16.2 6.6l-.6.7v-5.7h-17.1V114h17V85.2c0-9 4.2-14.4 11.1-14.4 5.8 0 9.9 4.4 9.9 10.7V114h17.1V85.2c0-9 4.2-14.4 11.3-14.4v-.6.6c5.6 0 9.7 4.5 9.7 10.7V114h17V77.7c0-12.8-8.8-22.1-21-22.1m65.3 0c-6.9 0-12.6 2-17.1 6l-.6.5v-4.9h-17.1V139h17.1v-31.7l.6.5c4.5 4 10.2 6 17.1 6 15.4 0 27-12.5 27-29.1s-11.6-29.2-27-29.2m-3.6 44c-8 0-14.1-6.5-14.1-14.8s6.2-14.8 14-14.8c8 0 13.9 6.2 13.9 14.8 0 8.7-5.7 14.7-13.8 14.7m82.3-37.3-.6-.5c-4.5-4-10.2-6-17.1-6-15.4 0-27 12.5-27 29.1s11.6 29.1 27 29.1c6.9 0 12.6-2 17.1-6l.6-.5v6.8h17.1V57.2h-17.1v4.9Zm-28 22.6c0-8.6 6-14.8 14-14.8 7.8 0 14 6.5 14 14.8s-6.2 14.8-14 14.8v.6-.6c-8.2 0-14-6.1-14-14.8M42 93.7a14 14 0 0 1-11.4 6.2c-8 0-14.1-6.3-14.1-14.8 0-8.2 6.2-14.7 14.1-14.7a13.5 13.5 0 0 1 11.2 5.9l.4.6 12-10.4-.5-.5a28.6 28.6 0 0 0-10-7.2 32.4 32.4 0 0 0-13-2.6C13.1 56.2 0 68.7 0 85.2a28.5 28.5 0 0 0 9 21c5.7 5.1 13.3 8 21.6 8a34.1 34.1 0 0 0 13.7-3 29.5 29.5 0 0 0 10.3-7.9l.4-.5L42.4 93l-.4.6Zm343-28.9v-7.4h-16.8V114H385V95.3c0-14.2 8.2-23.3 21-23.3h1.4V57.4h-1.5c-11.4 0-17 2.7-20.9 7.4Z"/>
        <path fill="#DC1A2C" d="M586.1 65.3 559 49.6l-27.1 15.7v31.4l27.1 15.7 27.1-15.7z"/>
        <path d="m540.8 151.5 56.5-32.7 13.5-7.8V51l-31.6-18.3 18.1-10.5L629 40.5v81L559 162l-18.2-10.5Zm-51.8-30v-81L559 0l18.2 10.5L559 21.1l-51.8 30V111l31.7 18.3-18.2 10.5-31.7-18.3Z"/>
    </g>
</svg>